<?xml version="1.0" encoding="utf-8"?>
<!-- Svg Vector Icons : http://www.onlinewebfonts.com/icon -->
<!DOCTYPE svg PUBLIC "-//W3C//DTD SVG 1.1//EN" "http://www.w3.org/Graphics/SVG/1.1/DTD/svg11.dtd">
<svg version="1.1" xmlns="http://www.w3.org/2000/svg" xmlns:xlink="http://www.w3.org/1999/xlink" x="0px" y="0px" viewBox="0 0 1000 1000" enable-background="new 0 0 1000 1000" xml:space="preserve">
<metadata> Svg Vector Icons : http://www.onlinewebfonts.com/icon </metadata>
<g><g transform="translate(0.000000,511.000000) scale(0.100000,-0.100000)"><path d="M4824.3,4716.2c-84.3-58.1-186-241.2-697.4-1272.8c-543.4-1086.8-616.1-1217.6-741-1333.8c-261.5-235.4-319.7-252.8-1714.5-456.2c-697.4-101.7-1290.2-191.8-1322.2-200.5c-104.6-34.9-226.7-162.7-244.1-258.6c-11.6-58.1-2.9-136.6,23.2-194.7c26.2-63.9,389.4-438.8,990.9-1028.7c1028.7-1005.4,1066.5-1054.9,1127.5-1415.2c29.1-171.4,14.5-273.1-191.8-1467.5c-238.3-1383.2-241.2-1453-104.6-1589.6c46.5-49.4,93-61,226.7-58.1c156.9,2.9,217.9,29.1,1284.4,592.8c613.2,325.5,1174,607.4,1246.7,630.6c162.7,49.4,421.4,49.4,587,0c69.8-23.2,630.6-305.1,1246.7-630.6c1072.3-566.7,1124.6-589.9,1287.3-592.8c145.3-2.9,180.2,5.8,226.7,63.9c130.8,165.6,130.8,200.5-107.5,1580.9c-209.2,1200.1-220.9,1299-191.8,1470.4c61,360.4,101.7,415.5,1083.9,1371.6c496.9,485.3,935.7,927,976.4,979.3c145.3,188.9,95.9,412.6-113.3,520.2c-43.6,23.2-653.8,125-1354.2,226.7c-1412.3,203.4-1470.4,220.9-1732,456.2c-127.8,116.2-197.6,244.1-741,1333.8c-511.4,1031.6-613.1,1214.7-697.4,1272.8c-55.2,34.9-133.7,63.9-177.3,63.9C4958,4780.1,4879.5,4751.1,4824.3,4716.2z M5068.4,4541.8c26.2-20.3,310.9-569.6,630.6-1220.5c572.5-1156.6,587-1185.6,764.3-1351.3c328.4-305.1,354.5-313.8,1804.6-526c703.2-101.7,1307.7-197.6,1345.5-212.1c46.5-17.4,66.8-46.5,66.8-101.7c0-61-142.4-212.1-717.8-775.9C7846.5-729.6,7773.9-805.1,7695.4-959.1c-104.6-212.1-165.6-438.8-165.6-630.6c0-95.9,93-706.2,203.4-1357.1c113.3-650.9,203.4-1223.4,203.4-1272.8c0-110.4-61-165.7-151.1-136.6c-37.8,8.7-572.5,284.8-1191.4,610.3c-619,325.5-1179.8,604.5-1249.6,621.9c-162.7,34.9-526,34.9-688.7-2.9c-69.7-14.5-633.5-293.5-1249.6-619c-616.1-325.4-1150.8-601.5-1188.5-613.1c-90.1-26.2-151.1,29.1-151.1,145.3c0,55.2,93,627.7,203.4,1275.7c113.3,650.9,203.4,1249.6,203.4,1333.8c0,191.8-63.9,441.7-162.7,636.4c-81.4,162.7-127.9,209.2-1237.9,1293.1C465.4,915.2,323,1069.2,323,1130.2c0,52.3,20.3,84.3,66.8,104.6c34.9,14.5,639.3,110.4,1342.6,212.1c1458.8,212.1,1484.9,217.9,1807.5,528.9c177.3,168.5,200.5,212.1,775.9,1368.7c325.5,659.6,610.3,1203.1,633.5,1211.8C5007.4,4579.6,5016.1,4579.6,5068.4,4541.8z"/></g></g>
</svg>